<svg width="17" height="16" viewBox="0 0 17 16" fill="none" xmlns="http://www.w3.org/2000/svg">
<path d="M5.65772 2.93154L10.2687 7.61654C10.3698 7.71876 10.4266 7.85675 10.4266 8.00054C10.4266 8.14433 10.3698 8.28232 10.2687 8.38454L5.65872 13.0695C5.55764 13.1724 5.50101 13.3108 5.50101 13.455C5.50101 13.5992 5.55764 13.7377 5.65872 13.8405C5.7081 13.8912 5.76711 13.9314 5.83229 13.9589C5.89747 13.9864 5.96749 14.0006 6.03822 14.0006C6.10896 14.0006 6.17897 13.9864 6.24415 13.9589C6.30933 13.9314 6.36834 13.8912 6.41772 13.8405L11.0277 9.15654C11.3306 8.84802 11.5004 8.43292 11.5004 8.00054C11.5004 7.56816 11.3306 7.15306 11.0277 6.84454L6.41772 2.16054C6.36833 2.10974 6.30925 2.06936 6.24398 2.04178C6.17871 2.01421 6.10858 2 6.03772 2C5.96687 2 5.89673 2.01421 5.83146 2.04178C5.76619 2.06936 5.70711 2.10974 5.65772 2.16054C5.55664 2.2634 5.50001 2.40183 5.50001 2.54604C5.50001 2.69025 5.55664 2.82869 5.65772 2.93154Z" fill="black"/>
</svg>
