<svg width="24" height="25" viewBox="0 0 24 25" fill="none" xmlns="http://www.w3.org/2000/svg">
<path d="M12 12.1254C13.3689 12.1254 14.5461 10.9031 14.5461 9.31143C14.5461 7.739 13.3624 6.57414 12 6.57414C10.6376 6.57414 9.45343 7.76471 9.45343 9.32429C9.45343 10.9031 10.6311 12.1254 12 12.1254ZM4.67271 12.2716C5.85686 12.2716 6.88843 11.2023 6.88843 9.821C6.88843 8.45214 5.85043 7.43986 4.67271 7.43986C3.48857 7.43986 2.44457 8.47743 2.451 9.83343C2.451 11.2023 3.48214 12.272 4.67271 12.272M19.3273 12.272C20.5179 12.272 21.549 11.2027 21.549 9.83386C21.549 8.47786 20.5114 7.44029 19.3273 7.44029C18.1496 7.44029 17.1116 8.45257 17.1116 9.821C17.1116 11.2027 18.1431 12.272 19.3273 12.272ZM1.12029 18.0204H5.95886C5.29671 17.0591 6.105 15.1237 7.47386 14.0669C6.76671 13.5959 5.85686 13.2457 4.66671 13.2457C1.79486 13.2457 0 15.3654 0 17.129C0 17.702 0.318429 18.0204 1.12029 18.0204ZM22.8797 18.0204C23.688 18.0204 24 17.702 24 17.129C24 15.3654 22.2047 13.2457 19.3337 13.2457C18.1431 13.2457 17.2329 13.5959 16.5266 14.0669C17.895 15.1237 18.7037 17.0591 18.0416 18.0204H22.8797ZM7.99543 18.0204H15.9977C16.9971 18.0204 17.3537 17.7337 17.3537 17.1736C17.3537 15.5313 15.2974 13.265 11.9936 13.265C8.69614 13.265 6.63986 15.5313 6.63986 17.1736C6.63986 17.7337 6.996 18.0204 7.99543 18.0204Z" fill="#919191"/>
</svg>
