<svg width="18" height="19" viewBox="0 0 18 19" fill="none" xmlns="http://www.w3.org/2000/svg">
<path d="M1.5 7.25C1.5 5.8355 1.5 5.129 1.9395 4.6895C2.379 4.25 3.0855 4.25 4.5 4.25H13.5C14.9145 4.25 15.621 4.25 16.0605 4.6895C16.5 5.129 16.5 5.8355 16.5 7.25C16.5 7.60325 16.5 7.78025 16.3905 7.8905C16.2803 8 16.1025 8 15.75 8H2.25C1.89675 8 1.71975 8 1.6095 7.8905C1.5 7.78025 1.5 7.6025 1.5 7.25ZM1.5 14C1.5 15.4145 1.5 16.121 1.9395 16.5605C2.379 17 3.0855 17 4.5 17H13.5C14.9145 17 15.621 17 16.0605 16.5605C16.5 16.121 16.5 15.4145 16.5 14V10.25C16.5 9.89675 16.5 9.71975 16.3905 9.6095C16.2803 9.5 16.1025 9.5 15.75 9.5H2.25C1.89675 9.5 1.71975 9.5 1.6095 9.6095C1.5 9.71975 1.5 9.8975 1.5 10.25V14Z" fill="#387FF8"/>
<path d="M5.25 2.75V5M12.75 2.75V5" stroke="#387FF8" stroke-width="2" stroke-linecap="round"/>
</svg>
