<svg width="18" height="19" viewBox="0 0 18 19" fill="none" xmlns="http://www.w3.org/2000/svg">
<path d="M13.3162 11C13.7635 11.0004 14.1923 11.1784 14.5085 11.4948C14.8246 11.8112 15.0022 12.2402 15.0022 12.6875V13.376C15.0022 13.8058 14.8679 14.2248 14.6182 14.5745C13.4587 16.1975 11.5657 17.0008 9.00068 17.0008C6.43418 17.0008 4.54193 16.1968 3.38543 14.5738C3.13652 14.2243 3.00282 13.8058 3.00293 13.3768V12.6868C3.00313 12.2395 3.1809 11.8105 3.49719 11.4943C3.81347 11.178 4.24239 11.0002 4.68968 11H13.3162ZM8.99993 2.00375C9.49239 2.00375 9.98002 2.10075 10.435 2.28921C10.89 2.47766 11.3034 2.75388 11.6516 3.1021C11.9998 3.45032 12.276 3.86372 12.4645 4.31869C12.6529 4.77366 12.7499 5.2613 12.7499 5.75375C12.7499 6.24621 12.6529 6.73385 12.4645 7.18882C12.276 7.64379 11.9998 8.05718 11.6516 8.4054C11.3034 8.75362 10.89 9.02985 10.435 9.2183C9.98002 9.40676 9.49239 9.50375 8.99993 9.50375C8.00537 9.50375 7.05154 9.10867 6.34828 8.4054C5.64502 7.70214 5.24993 6.74832 5.24993 5.75375C5.24993 4.75919 5.64502 3.80536 6.34828 3.1021C7.05154 2.39884 8.00537 2.00375 8.99993 2.00375Z" fill="#387FF8"/>
</svg>
