<svg width="18" height="19" viewBox="0 0 18 19" fill="none" xmlns="http://www.w3.org/2000/svg">
<path fill-rule="evenodd" clip-rule="evenodd" d="M2.8125 3.03125H8.15625C8.31159 3.03125 8.4375 3.15716 8.4375 3.3125V8.65625C8.4375 8.81159 8.31159 8.9375 8.15625 8.9375H2.8125C2.65716 8.9375 2.53125 8.81159 2.53125 8.65625V3.3125C2.53125 3.15716 2.65716 3.03125 2.8125 3.03125ZM12.7321 2.58594L15.9141 5.76793C16.0239 5.87776 16.0239 6.05583 15.9141 6.16567L12.7321 9.34765C12.6222 9.45748 12.4442 9.45748 12.3343 9.34765L9.15235 6.16566C9.04252 6.05583 9.04252 5.87776 9.15235 5.76792L12.3343 2.58594C12.4442 2.47611 12.6222 2.47611 12.7321 2.58594ZM2.8125 10.0625H8.15625C8.31159 10.0625 8.4375 10.1884 8.4375 10.3437V15.6875C8.4375 15.8428 8.31159 15.9687 8.15625 15.9687H2.8125C2.65716 15.9687 2.53125 15.8428 2.53125 15.6875V10.3437C2.53125 10.1884 2.65716 10.0625 2.8125 10.0625ZM9.84375 10.0625H15.1875C15.3428 10.0625 15.4688 10.1884 15.4688 10.3437V15.6875C15.4688 15.8428 15.3428 15.9687 15.1875 15.9687H9.84375C9.68841 15.9687 9.5625 15.8428 9.5625 15.6875V10.3437C9.5625 10.1884 9.68841 10.0625 9.84375 10.0625Z" fill="#919191"/>
</svg>
