<svg width="18" height="19" viewBox="0 0 18 19" fill="none" xmlns="http://www.w3.org/2000/svg">
<path d="M9.00883 7.36601C8.48324 7.36601 7.99105 7.56992 7.6184 7.94258C7.2475 8.31523 7.04184 8.80742 7.04184 9.33301C7.04184 9.85859 7.2475 10.3508 7.6184 10.7234C7.99105 11.0943 8.48324 11.3 9.00883 11.3C9.53441 11.3 10.0266 11.0943 10.3993 10.7234C10.7702 10.3508 10.9758 9.85859 10.9758 9.33301C10.9758 8.80742 10.7702 8.31523 10.3993 7.94258C10.2172 7.75916 10.0006 7.61374 9.7619 7.51476C9.52321 7.41579 9.26723 7.36522 9.00883 7.36601ZM16.2563 11.5057L15.1067 10.523C15.1612 10.1891 15.1893 9.84805 15.1893 9.50879C15.1893 9.16953 15.1612 8.82676 15.1067 8.49453L16.2563 7.51191C16.3431 7.43757 16.4053 7.33855 16.4345 7.22802C16.4637 7.1175 16.4586 7.0007 16.4198 6.89316L16.4039 6.84746C16.0876 5.96274 15.6135 5.14265 15.0047 4.42695L14.9731 4.39004C14.8992 4.30312 14.8006 4.24063 14.6905 4.21082C14.5804 4.18101 14.4638 4.18527 14.3561 4.22305L12.9288 4.73105C12.4014 4.29863 11.8143 3.95762 11.178 3.72031L10.902 2.22793C10.8812 2.1155 10.8266 2.01207 10.7456 1.93138C10.6646 1.85069 10.561 1.79656 10.4485 1.77617L10.401 1.76738C9.48695 1.60215 8.52367 1.60215 7.60961 1.76738L7.56215 1.77617C7.44964 1.79656 7.346 1.85069 7.265 1.93138C7.18399 2.01207 7.12945 2.1155 7.10863 2.22793L6.8309 3.72734C6.20059 3.96653 5.61342 4.30672 5.09242 4.73457L3.65453 4.22305C3.54689 4.18497 3.43022 4.18056 3.32001 4.21039C3.2098 4.24022 3.11128 4.30288 3.03754 4.39004L3.0059 4.42695C2.3982 5.14341 1.92426 5.96329 1.60668 6.84746L1.59086 6.89316C1.51176 7.11289 1.5768 7.35898 1.75434 7.51191L2.91801 8.50508C2.86352 8.83555 2.83715 9.17305 2.83715 9.50703C2.83715 9.84453 2.86352 10.182 2.91801 10.509L1.75785 11.5021C1.67101 11.5765 1.60885 11.6755 1.57965 11.786C1.55045 11.8966 1.55559 12.0134 1.59437 12.1209L1.6102 12.1666C1.92836 13.0508 2.3977 13.8682 3.00941 14.5871L3.04105 14.624C3.11498 14.7109 3.2135 14.7734 3.32364 14.8032C3.43379 14.833 3.55038 14.8288 3.65805 14.791L5.09594 14.2795C5.61977 14.7102 6.20336 15.0512 6.83441 15.2867L7.11215 16.7861C7.13297 16.8986 7.18751 17.002 7.26851 17.0827C7.34952 17.1634 7.45316 17.2175 7.56566 17.2379L7.61313 17.2467C8.53618 17.4128 9.48148 17.4128 10.4045 17.2467L10.452 17.2379C10.5645 17.2175 10.6681 17.1634 10.7491 17.0827C10.8301 17.002 10.8847 16.8986 10.9055 16.7861L11.1815 15.2937C11.8178 15.0547 12.4049 14.7154 12.9323 14.283L14.3596 14.791C14.4672 14.8291 14.5839 14.8335 14.6941 14.8037C14.8043 14.7738 14.9029 14.7112 14.9766 14.624L15.0082 14.5871C15.62 13.8646 16.0893 13.0508 16.4075 12.1666L16.4233 12.1209C16.4989 11.9029 16.4338 11.6586 16.2563 11.5057ZM9.00883 12.4232C7.30199 12.4232 5.91859 11.0398 5.91859 9.33301C5.91859 7.62617 7.30199 6.24277 9.00883 6.24277C10.7157 6.24277 12.0991 7.62617 12.0991 9.33301C12.0991 11.0398 10.7157 12.4232 9.00883 12.4232Z" fill="#919191"/>
</svg>
