<svg width="18" height="19" viewBox="0 0 18 19" fill="none" xmlns="http://www.w3.org/2000/svg">
<path d="M4.57888 16.182C5.83869 17.1743 7.39628 17.7127 8.99994 17.7104C10.6686 17.7104 12.2041 17.1395 13.421 16.182M6.89467 3.70915C3.96878 4.6081 1.84204 7.33189 1.84204 10.5525C1.84204 11.363 1.97678 12.142 2.2252 12.8683M11.1052 3.70915C14.0311 4.6081 16.1578 7.33189 16.1578 10.5525C16.1578 11.363 16.0231 12.142 15.7747 12.8683" stroke="#919191"/>
<path d="M17 14.763C17 15.3281 16.7777 15.8409 16.4156 16.219C16.0774 16.5723 15.6268 16.7968 15.1412 16.8541C14.6555 16.9113 14.1651 16.7977 13.754 16.5327C13.343 16.2678 13.0371 15.868 12.8887 15.402C12.7403 14.936 12.7588 14.4329 12.941 13.9791C13.1231 13.5252 13.4576 13.149 13.887 12.9149C14.3163 12.6808 14.8138 12.6035 15.294 12.6962C15.7741 12.789 16.207 13.046 16.5183 13.4231C16.8296 13.8002 16.9999 14.274 17 14.763ZM5.21053 14.763C5.21053 15.3281 4.98821 15.8409 4.62611 16.219C4.28795 16.5723 3.83737 16.7968 3.3517 16.8541C2.86603 16.9113 2.37559 16.7977 1.96456 16.5327C1.55354 16.2678 1.24758 15.868 1.09922 15.402C0.950861 14.936 0.969349 14.4329 1.15151 13.9791C1.33368 13.5252 1.66815 13.149 2.09751 12.9149C2.52687 12.6808 3.02434 12.6035 3.50449 12.6962C3.98465 12.789 4.41754 13.046 4.72885 13.4231C5.04016 13.8002 5.21047 14.274 5.21053 14.763ZM11.1053 3.3946C11.1053 3.95965 10.8829 4.4725 10.5208 4.8506C10.1827 5.20388 9.7321 5.42841 9.24644 5.48565C8.76077 5.5429 8.27032 5.42928 7.8593 5.16431C7.44828 4.89934 7.14232 4.49954 6.99396 4.03356C6.8456 3.56758 6.86409 3.06448 7.04625 2.61065C7.22841 2.15682 7.56289 1.78056 7.99225 1.54647C8.42161 1.31238 8.91907 1.23506 9.39923 1.3278C9.87938 1.42054 10.3123 1.67754 10.6236 2.05468C10.9349 2.43182 11.1052 2.90557 11.1053 3.3946Z" fill="#919191" stroke="#919191" stroke-linecap="round" stroke-linejoin="round"/>
</svg>
